<svg width="330" height="164" viewBox="0 0 330 164" fill="none" xmlns="http://www.w3.org/2000/svg">
<path d="M320.72 64.766C320.689 65.5585 320.533 66.4374 320.746 67.1083C322.052 71.2594 321.796 75.7139 321.131 80.2012C320.221 85.3706 319.041 90.5106 318.097 95.6828C317.686 97.9582 317.596 100.259 317.32 102.549C317.229 103.193 317.086 103.867 316.895 104.494C316.488 105.877 314.411 107.114 316.142 108.759C316.19 108.806 315.496 109.881 315.186 110.517C314.741 111.419 313.068 112.139 314.445 113.482C314.477 113.505 313.788 114.783 313.3 115.281C304.212 124.367 293.94 127.584 283.217 128.468C281.223 128.628 279.283 129.293 277.261 128.512C276.086 128.045 274.043 129.279 272.655 130.333C271.196 131.443 270.295 131.21 269.446 130.105C268.191 128.448 267.267 129.133 265.896 130.746C265.019 131.785 263.509 132.339 262.249 132.695C258.506 133.708 254.766 133.854 251.109 136.797C248.682 138.75 245.564 139.535 242.716 140.349C239.919 141.159 237.04 141.083 234.23 141.818C232.904 142.154 232.808 141.779 232.714 140.538C232.639 139.55 232.378 138.552 231.987 137.742C231.761 137.276 231.152 136.968 230.663 136.931C230.46 136.921 230.131 137.865 229.83 138.348C229.436 138.965 228.927 140.077 228.606 140.051C227.946 140.028 227.176 139.58 226.789 138.973C225.257 136.573 225.311 136.518 223.376 139.323C222.985 139.89 222.608 140.506 222.14 140.951C221.527 141.535 220.819 142.025 220.16 142.537C220.211 141.691 220.42 140.783 220.244 140.058C220.055 139.258 219.517 138.638 219.119 137.931C218.483 138.619 216.758 136.871 216.983 139.58C217.012 139.934 216.452 140.489 216.17 140.945C216.027 140.497 215.975 139.967 215.743 139.603L215.731 139.586C215.453 139.178 215.1 138.659 214.686 138.592C214.064 138.489 213.251 138.477 212.685 138.854C209.982 140.625 207.511 141.638 205.588 138.428C205.348 137.997 205.21 138.294 204.615 139.58L204.58 139.656C204.207 140.475 203.438 141.123 202.79 141.735C202.681 141.846 202.164 141.429 201.962 141.139C201.575 140.533 201.328 139.304 200.905 139.287C199.719 139.255 198.487 139.71 197.279 140.062C196.952 140.139 196.637 140.572 196.314 140.852C196.259 137.595 193.849 140.387 192.821 139.45C192.436 139.099 191.607 139.343 190.974 139.419C190.615 139.474 190.226 139.734 189.86 139.891C189.874 139.66 189.828 139.307 189.918 139.224C190.293 138.913 190.699 138.652 191.099 138.492C191.952 138.144 192.816 137.87 193.684 137.546C192.991 136.684 192.392 135.662 191.565 135.04C190.56 134.28 188.917 135.354 188.35 136.852C188.068 137.588 187.52 138.218 187.289 138.95C187.061 139.631 187.117 140.365 187.041 141.059C186.271 140.892 185.408 140.859 184.736 140.48C183.573 139.808 182.611 138.611 181.027 139.834C180.884 139.947 180.613 139.943 180.483 139.852C179.913 139.464 179.362 139.049 178.794 138.636C178.909 139.519 178.936 140.46 179.173 141.307C179.795 143.602 179.126 144.292 177.419 143.639C173.93 145.218 173.274 141.524 171.71 139.917C169.732 137.884 166.885 138.111 165.67 141.343C164.959 143.26 164.739 144.909 162.911 142.915C162.053 141.964 160.842 142.621 160.183 143.974C158.595 147.184 155.767 147.666 153.436 149.177C153.118 149.381 152.275 149.015 152.13 148.619C151.648 147.358 151.323 146.008 151.035 144.63C150.693 143.001 148.6 141.741 147.378 142.578C147.113 142.752 146.8 143.44 146.867 143.715C147.124 144.79 147.465 145.858 147.916 146.816C148.243 147.554 148.802 148.121 149.183 148.83C149.214 148.878 148.564 149.516 148.237 149.874C147.15 147.132 146.139 150.067 145.393 150.611C142.285 152.899 140.81 152.889 137.913 150.063C137.658 149.803 137.087 149.976 136.649 149.935C136.439 151.43 135.878 151.449 135.415 150.416C135.012 149.531 134.131 148.684 135.254 147.244C136.395 145.776 136.192 143.83 134.928 143.141C134.829 143.098 134.376 143.568 134.255 143.883C133.915 144.726 134.345 146.017 132.867 146.059C131.423 146.098 129.963 146.393 128.509 146.586C128.666 145.962 128.703 145.092 129.042 144.81C130.582 143.489 130.543 142.193 129.84 140.644C129.63 140.202 129.793 139.475 129.778 138.89C129.761 138.611 129.746 138.307 129.729 138.028C127.795 140.527 127.805 136.5 126.413 137.07C126.36 137.1 126.158 136.25 126.016 135.802C126.426 135.744 126.818 135.713 127.212 135.656C127.691 135.592 128.151 135.555 128.63 135.491C128.339 134.979 128.166 134.203 127.74 133.957C126.676 133.329 125.5 132.862 124.318 132.498C123.603 132.275 122.636 131.996 122.069 132.398C120.012 133.862 119.323 132.363 118.48 130.901C117.943 129.976 117.333 129.133 116.744 128.237C116.216 129.655 114.176 129.997 114.629 132.305C114.755 133.009 113.505 134.306 112.868 135.3C112.775 135.435 112.553 135.453 112.397 135.516C112.221 134.231 112.737 132.457 110.986 132.24C110.817 132.228 108.9 129.196 108.607 129.551C108.205 130.016 107.856 130.732 107.784 131.35C107.474 133.923 106.612 134.705 104.655 134.25C103.452 133.964 102.142 134.018 100.959 133.68C100.325 133.501 99.7865 132.882 99.3655 132.278C98.9446 131.675 98.8775 130.279 98.4406 130.212C97.0804 129.989 95.6253 130.208 94.1936 130.323C94.0402 130.335 93.8585 130.808 93.6894 131.076C93.9 131.238 94.1151 131.603 94.3212 131.561C94.8868 131.465 95.4899 131.034 96.0136 131.069C96.5543 131.102 97.197 131.407 97.4554 131.896C97.6534 132.263 97.315 133.08 97.2262 133.698C96.6748 133.564 95.8705 133.679 95.6245 133.266C94.7781 131.856 93.7319 132.322 92.5756 132.924C91.5417 133.465 90.7545 133.579 90.4272 132C89.9055 129.443 87.9044 130.546 86.3751 130.592C86.324 130.596 85.8531 132.468 86.0652 132.604C87.1864 133.406 86.9655 134.52 86.1637 135.425C85.7823 135.838 84.8652 135.58 84.2052 135.556C83.68 135.547 83.1054 135.236 82.6342 135.452C81.7972 135.825 80.6376 138.696 80.5458 135.212C79.9367 135.465 79.2672 135.595 78.7339 135.994C77.382 137.02 76.5047 137.498 74.95 136.297C73.6849 135.353 71.6737 135.514 70.7052 133.604C70.6155 133.408 69.9322 133.488 69.6314 133.69C68.5881 134.385 68.602 134.435 68.5211 132.989C68.4982 132.532 68.5636 132.017 68.4338 131.646C68.3024 131.299 67.9585 131.097 67.7217 130.811C67.5309 131.157 67.323 131.505 67.1817 131.873C67.0155 132.371 66.8989 132.89 66.7482 133.411C66.5069 132.921 66.0749 132.497 66.0242 131.94C65.8829 130.372 65.3045 130.953 64.8298 131.781C63.9935 133.25 63.3624 133.861 62.6248 132.06C62.4453 131.666 61.8613 131.509 61.4105 131.392C60.557 131.206 59.6801 131.123 58.8234 130.988C58.9373 131.896 58.9459 132.864 59.1652 133.713C59.9283 136.76 59.3497 137.622 56.6941 137.503C55.2904 137.437 53.8492 137.706 52.4314 137.87C51.0833 138.004 49.6296 138.477 49.2532 136.315C49.2579 136.238 48.4847 136.402 48.4831 136.428C48.2983 138.889 47.4717 137.987 46.4882 137.429C45.9787 137.164 45.1789 137.482 44.5142 137.536C44.9027 138.116 45.2741 138.698 45.6982 139.25C45.791 139.396 46.0669 139.322 46.2124 139.438C46.6785 139.86 47.1445 140.281 47.5547 140.783C47.6027 140.83 47.1667 141.579 47.1001 141.559C46.5502 141.399 46.0236 141.135 45.5157 140.845C45.0727 140.6 44.684 140.3 44.2613 140.002C44.0888 140.602 43.8312 141.209 43.761 141.801C43.4405 141.495 38.1953 142.119 37.8127 141.996C37.2984 141.808 36.6615 141.961 36.1286 141.8C35.4641 141.573 34.8415 141.215 34.1988 140.91C34.783 140.786 35.3657 140.689 35.936 140.516C36.1793 140.42 36.5327 140.188 36.615 139.952C36.6958 139.741 36.4807 139.376 36.3058 139.186C35.5549 138.431 32.2758 139.076 32.0224 140.166C31.6074 141.958 30.8596 141.151 30.2958 140.942C28.7205 140.354 31.0231 140.144 30.5337 139.827C29.7842 139.326 28.753 138.44 28.1562 138.769C25.6265 140.194 26.4903 137.169 26.0803 136.386C25.381 135.066 26.7491 135.161 27.5674 134.815C29.2026 134.149 30.0308 133.089 28.5602 131.346C27.8652 130.51 29.7935 125.335 30.7947 125.051C30.8969 125.043 31.0824 125.615 31.1472 125.941C31.3664 127.07 31.5685 128.2 31.7876 129.33C32.0186 129.158 32.4185 128.999 32.4651 128.791C32.8676 127.204 34.8966 126.201 34.091 124.125C33.726 123.16 33.5921 122.024 33.3342 120.975C32.9419 119.35 32.8748 117.954 34.9249 117.713C35.1976 117.691 35.4799 117.235 35.7667 116.983C35.5391 116.823 35.3317 116.61 35.0838 116.503C33.3491 115.75 31.6686 114.941 29.6453 116.683C29.0918 117.135 28.1546 116.93 27.4078 116.939C26.9491 116.95 26.5201 116.755 26.0615 116.766C24.1727 116.866 22.231 117.277 20.4153 117.014C18.2975 116.7 19.473 113.293 18.0453 112.235C17.7697 112.028 16.9127 112.173 16.7064 112.495C15.1707 114.86 14.7042 115 14.0771 112.502C13.6538 110.828 13.1891 110.661 11.9102 111.605C11.5892 111.86 10.9868 111.449 10.502 111.335C10.8682 110.618 11.1418 109.475 11.6129 109.259C12.6607 108.767 13.8536 108.952 14.8859 108.436C15.3741 108.219 15.6338 107.026 16.0016 106.283C15.5555 106.089 14.9919 105.599 14.6912 105.801C13.5766 106.553 12.4422 104.86 11.1872 106.795C10.5326 107.791 9.87502 106.62 10.35 105.512C11.0027 103.962 10.6343 103.96 9.42401 103.956L9.41071 103.956C8.46093 103.956 7.60958 102.903 6.74859 102.284C6.71764 102.235 6.91027 101.583 7.06995 101.468C7.70238 101.111 8.40591 100.979 9.02444 100.572C9.50033 100.279 9.87575 99.6888 10.2944 99.2221C9.87618 99.1281 9.4346 99.138 9.07374 98.9375C8.54872 98.6483 7.63503 98.0589 7.69715 97.8755C8.11493 96.5934 8.63498 95.3031 9.36249 94.2256C9.73633 93.6605 10.6381 93.6138 11.2102 93.1348C11.3715 92.9945 11.397 92.0241 11.1911 91.7858C10.3073 90.7098 9.35049 89.7161 8.33789 88.8033C7.34077 87.9148 7.78863 87.8025 8.75254 87.5725C10.5595 87.1475 12.3556 86.6215 14.1673 86.1197C14.4075 86.075 14.6432 85.8268 14.8912 85.654C14.6992 85.4655 14.5476 85.1719 14.3323 85.0872C12.7756 84.4728 11.1817 83.9123 9.62664 83.2723C8.06997 82.658 7.92193 81.7524 9.6102 80.496C9.98226 80.2369 10.2646 79.7811 10.5934 79.398C10.2433 79.2986 9.87616 79.2006 9.54625 79.0486C9.16835 78.8495 8.81064 78.5979 8.43431 78.3732L9.46704 77.2967C9.81286 76.9122 10.1571 76.5534 10.5029 76.169C8.99154 75.0922 9.77061 73.45 10.1422 71.8148C10.3754 70.7768 9.9941 68.9726 10.3182 68.6663C11.7537 67.6595 13.3812 66.8412 14.9618 66.5108C16.1303 66.2644 17.3275 66.933 18.5203 67.1179C18.9913 67.1821 19.9101 67.134 19.9738 66.9251C20.303 65.9813 20.5208 64.9191 20.4936 63.9784C20.4815 63.6226 19.7288 63.1732 19.2702 63.1845C18.4382 63.2001 17.4992 63.3007 16.7411 63.7691C14.5554 65.1163 12.8848 63.5937 11.0196 63.3098C10.5145 63.2483 10.0444 62.0627 9.95826 61.2542C9.91904 60.8067 10.635 60.053 11.1072 59.5559L11.1325 59.5293C12.708 57.8997 14.3956 57.4843 16.27 57.8949C18.2266 58.3498 20.0474 57.9747 21.1729 55.107C21.6946 53.7911 24.7087 53.0402 25.7462 53.8235C25.8593 53.9164 25.7256 54.4368 25.6711 54.7724C25.5637 55.4181 25.4206 56.0921 25.2946 56.7647C25.8012 56.8006 26.2893 56.8635 26.799 56.8482C27.0888 56.825 27.3756 56.5727 27.6468 56.5764C28.0015 56.599 28.3469 56.7752 28.68 56.876C28.4008 57.2806 28.1709 57.987 27.8594 58.0884C25.0682 59.0763 26.5074 61.331 26.334 63.0522C26.3044 63.2584 27.178 63.6727 27.6397 63.6102C28.9057 63.4325 30.0136 63.3438 30.0648 65.2764C30.4429 65.1951 30.9805 65.2795 31.1666 65.0098C33.9618 60.9127 34.5807 56.0724 35.6472 51.4001C35.7405 50.9849 35.5317 50.5174 35.4561 50.0903C35.1075 48.0286 35.7499 48.8946 36.7687 47.7682C38.8793 45.4332 41.641 48.5249 43.2287 45.0341C43.266 44.9801 43.7834 45.1171 44.0467 45.2489C45.8402 46.1502 46.5518 45.609 47.5436 43.2617C47.9596 42.2855 46.7728 40.3419 48.8816 40.2495C48.8183 39.8978 48.8466 39.4369 48.6934 39.1688C48.5108 38.8267 48.0445 38.6856 47.9131 38.3394C46.6313 34.8999 46.5508 34.8299 43.2258 34.8412C42.6479 34.862 42.0482 34.961 41.5137 34.8254C40.8631 34.6481 39.8097 34.4012 39.7543 33.9214C39.6543 33.063 40.1292 31.9547 40.4755 31.0096C40.5562 30.7993 41.1357 30.7529 41.4829 30.6232C41.4764 31.0059 41.504 31.386 41.4634 31.7715C41.3932 32.3632 41.2905 32.932 41.2033 33.5251C42.0338 33.5351 42.8829 33.5181 43.7133 33.5281C43.6828 32.9189 43.5686 32.291 43.6574 31.6723C43.7135 31.311 44.0734 30.6961 44.3322 30.6244C44.9707 30.4459 45.6462 30.4938 46.2908 30.4931C48.5499 30.4397 50.8228 30.4362 53.085 30.3315C53.46 30.3015 53.8648 29.7849 54.2555 29.4988C53.9581 29.3697 53.6638 29.1894 53.3649 29.0859C52.4185 28.754 51.455 28.4234 50.5086 28.0914C51.6584 27.872 52.8221 27.7024 53.9751 27.4317C54.2664 27.3829 54.5564 27.0794 54.8571 26.8769C54.5985 26.6683 54.3229 26.461 54.0457 26.2793C53.7205 26.0505 53.3751 25.8743 53.0484 25.6711C53.4482 25.5117 53.8465 25.3779 54.2325 25.1686C54.6185 24.9593 55.226 24.7323 55.313 24.4196C56.1522 21.2435 57.8273 22.9696 58.1706 23.7321C58.992 25.5521 61.6749 24.3945 61.7332 27.04C62.581 26.7683 63.7306 26.8292 64.1944 26.1804C66.2138 23.3941 68.3092 24.6279 70.3745 24.6919C71.1027 24.7101 71.8603 24.8023 72.5047 25.082C73.1165 25.3388 73.6615 25.8558 74.1383 26.3783C74.2172 26.4739 73.8337 27.4729 73.6974 27.4838C73.0172 27.5128 72.3419 27.1846 71.6554 27.316C70.6792 27.4706 69.6733 27.8314 68.7742 28.3876C68.6146 28.5023 68.7666 30.172 69.1365 30.7795C69.3206 31.096 70.5525 30.9209 70.8658 30.5136C72.1578 28.8048 73.1724 29.1313 74.2779 30.1895C74.5983 30.4951 75.1776 30.7291 75.593 30.5939C77.6511 29.945 79.3986 30.2128 81.1237 31.3998C81.6595 31.7901 82.906 30.824 83.8405 30.5198C84.3085 30.3549 84.9006 30.1037 85.263 30.2785C87.3012 31.3385 87.2656 31.3669 87.6862 28.3772C87.8654 27.1142 88.1468 25.843 88.4778 24.5934C88.5648 24.2806 89.0717 24.0362 89.3771 23.7569C89.4729 24.1315 89.6554 24.4736 89.6644 24.8806C89.6918 25.541 89.6324 26.2338 89.6086 26.8982C90.159 26.4974 90.7883 26.1922 91.2767 25.6944C92.9623 23.9286 97.0472 25.0796 97.4899 27.5415C97.5007 27.6425 96.7954 28.0812 96.4094 28.2905C95.918 28.5592 95.4128 28.778 94.9075 28.9968C95.2107 29.5842 95.3588 30.4897 95.8203 30.7076C96.9385 31.2806 98.5717 31.2008 97.3488 33.7196C97.1952 34.0122 97.5991 34.6169 97.7413 35.0642C98.2513 34.7686 99.1331 34.4941 99.2046 34.1571C99.6107 31.9586 101.403 29.8274 100.102 27.5362C99.9026 27.1954 100.418 25.7017 100.469 25.6976C101.603 25.7342 102.711 25.9258 103.822 26.0663C103.474 26.7566 103.159 27.4699 102.812 28.1603C102.58 28.612 102.317 29.0408 102.068 29.4939C102.429 29.6944 102.824 30.1724 103.17 30.0683C104.24 29.7532 105.881 30.3864 105.853 27.7894C105.846 27.3568 106.578 26.4827 106.992 26.3731C108.249 26.0687 109.524 26.0176 110.802 25.9152C111.16 25.8866 111.485 26.1154 111.803 26.1919C111.547 26.773 111.374 27.6532 111.024 27.8342C110.411 28.138 109.666 27.8409 109.039 28.1205C108.549 28.3636 108.149 29.0836 107.711 29.5773C108.151 29.8734 108.719 30.5669 108.984 30.3928C110.362 29.4925 110.839 30.5756 111.588 31.3566C113.373 33.2268 115.414 34.7963 114.762 38.518C114.687 38.9062 115.387 39.3853 115.734 39.8163L116.381 38.3884C116.536 38.0702 116.626 37.7062 116.797 37.4122C117.138 36.8243 117.528 36.2835 117.902 35.7184C118.264 36.1736 118.609 36.6301 119.007 37.057C119.516 37.6023 120.078 38.1179 120.606 38.6363C120.738 37.8612 120.888 37.0848 121.003 36.3111C121.434 33.4225 119.668 33.4619 118.088 33.2317C117.718 33.1849 117.416 32.8523 117.089 32.6491C117.258 32.3807 117.479 31.8279 117.613 31.8426C119.723 32.005 121.104 29.3971 123.026 29.0395C123.73 28.9067 124.45 29.3332 125.13 29.5846C125.28 29.6235 125.374 30.0237 125.358 30.2798C125.336 30.9186 123.547 29.9406 124.603 31.2576C124.871 31.5929 126.942 32.3955 127.356 30.0689C127.563 28.9056 128.322 27.0356 126.483 26.877C125.824 26.8278 125.128 27.1128 124.47 27.0636C124.064 27.0452 123.694 26.718 123.299 26.5203C123.718 26.0536 124.157 25.2539 124.532 25.2239C127.154 25.065 129.784 25.0328 132.394 25.0788C132.699 25.0798 132.912 25.7508 133.178 26.1117C132.796 26.2698 132.405 26.5559 132.03 26.5859C131.261 26.6729 130.476 26.4809 129.734 26.6932C129.354 26.8001 129.02 27.5403 128.653 28.0029C129.003 28.3827 129.346 29.1451 129.705 29.0909C130.528 28.9486 131.375 28.4221 132.21 28.0749C134.349 27.2157 135.518 28.3453 135.175 30.8955C135.108 31.436 134.912 32.1398 135.093 32.5075C135.887 34.2278 135.331 34.9857 133.746 35.393C133.281 35.5066 132.478 36.157 132.458 36.4899C132.422 37.0789 132.898 37.6014 133.171 38.1402C133.568 37.7517 133.947 37.3645 134.343 37.0016C134.577 36.779 134.813 36.5308 135.075 36.4079C137.891 34.763 137.89 34.7555 137.074 31.185L137.06 31.1269C136.806 30.026 136.969 29.0191 138.366 29.1875C139.714 29.3345 141.105 29.8857 142.427 28.251C142.557 28.0621 143.172 28.2677 143.448 28.475C147.181 31.2086 151.242 30.8071 155.386 27.9526C155.882 27.6071 157.04 26.6989 157.079 26.0587C157.275 22.0423 158.932 24.3305 160.166 24.4101C161.771 24.511 163.427 24.6077 165.043 24.249C166.832 23.851 168.588 22.8695 170.372 22.268C172.12 21.6949 171.562 23.5998 171.888 24.644C172.092 25.1882 172.309 25.808 172.699 26.0825C172.894 26.2198 173.507 25.6356 173.914 25.3482C174.536 24.8907 175.201 23.9965 175.779 23.9757C177.244 23.884 178.915 24.846 179.159 21.6921C179.747 21.7723 180.377 21.7475 180.942 21.9316C182.838 22.5443 184.695 23.2365 186.593 23.8236C186.859 23.9042 187.509 23.5465 187.592 23.2849C188.593 19.9685 189.729 21.9162 190.259 22.944C190.897 24.1672 191.422 23.6154 192.392 23.5633C194.283 23.4374 196.825 21.8069 198.016 24.795C198.073 24.9688 199.013 24.8425 199.182 24.5742C200.403 22.6417 201.204 23.1382 202.519 24.1032C203.459 24.818 205.139 24.2503 206.496 24.2436C208.242 24.2567 209.985 24.321 211.736 24.2573C216.307 24.1208 220.77 25.1905 225.538 22.9487C227.039 22.2423 228.898 23.1893 230.61 23.2052C231.509 23.2097 232.462 22.8786 233.375 22.6526C233.632 22.6065 233.982 22.1452 234.13 22.2354C237.758 24.1874 242.056 22.977 245.914 23.9422C248.954 24.7183 252.228 24.711 255.419 24.9397C256.028 24.9674 256.72 24.4789 257.361 24.2491C257.795 24.087 258.626 23.8166 258.638 23.8921C259.194 26.4468 260.976 24.4949 262.128 24.7849C263.632 25.1487 265.105 25.7443 266.653 25.9517C268.032 26.1471 269.526 25.8491 270.926 25.9664C274.301 26.2569 277.383 27.4372 279.584 30.2679C280.841 31.9002 282.115 31.8747 283.854 30.8945C284.575 30.48 285.453 30.5371 286.254 30.473C288.403 30.2755 290.613 30.4809 292.691 29.7794C293.591 29.478 294.004 29.394 294.834 29.6843C297.342 30.5538 300.019 30.0337 302.727 29.3073C307.918 27.8979 312.809 28.908 317.687 29.8426C319.548 30.2033 319.535 32.3448 319.719 34.063C319.935 36.0588 319.79 38.1601 319.973 40.1586C320.366 44.2553 321.139 48.2451 321.275 52.3879C321.399 56.4553 320.922 60.6472 320.72 64.766Z" fill="#DFF5B0"/>
</svg>
