<svg width="31" height="29" viewBox="0 0 31 29" fill="none" xmlns="http://www.w3.org/2000/svg">
<path d="M25.0897 6.99679C25.0897 7.92533 24.3324 8.67701 23.3969 8.67701C22.4614 8.67701 21.7015 7.92273 21.7015 6.99679C21.7015 6.06824 22.4614 5.31396 23.3969 5.31396C24.3324 5.31396 25.0897 6.06564 25.0897 6.99679Z" fill="white"/>
<path d="M21.0542 28.9436H9.65548C4.5981 28.9436 0.481445 24.8575 0.481445 19.8377V9.86818C0.481445 4.84832 4.5981 0.762207 9.65548 0.762207H21.0542C26.1116 0.762207 30.2283 4.84832 30.2283 9.86818V19.8377C30.2283 24.8575 26.1116 28.9436 21.0542 28.9436ZM9.65548 2.78576C5.71963 2.78576 2.52012 5.96153 2.52012 9.86818V19.8377C2.52012 23.7443 5.71963 26.9201 9.65548 26.9201H21.0542C24.9875 26.9201 28.1896 23.7443 28.1896 19.8377V9.86818C28.1896 5.96413 24.9875 2.78576 21.0542 2.78576H9.65548Z" fill="white"/>
<path d="M15.3549 22.9589C10.8504 22.9589 7.1897 19.3227 7.1897 14.8517C7.1897 10.3806 10.853 6.74707 15.3549 6.74707C19.8567 6.74707 23.5201 10.3832 23.5201 14.8517C23.5201 19.3227 19.8594 22.9589 15.3549 22.9589ZM15.3549 8.77062C11.9772 8.77062 9.22575 11.499 9.22575 14.8543C9.22575 18.2069 11.9746 20.9353 15.3549 20.9353C18.7326 20.9353 21.4814 18.2069 21.4814 14.8543C21.4814 11.499 18.7326 8.77062 15.3549 8.77062Z" fill="white"/>
</svg>
