<svg width="25" height="18" viewBox="0 0 25 18" fill="none" xmlns="http://www.w3.org/2000/svg">
<path d="M23.6911 3.38674C23.4232 2.38376 22.6347 1.59354 21.6319 1.3276C19.8177 0.841308 12.5223 0.841309 12.5223 0.841309C12.5223 0.841309 5.22705 0.841308 3.41279 1.3276C2.40998 1.59354 1.6215 2.38376 1.35357 3.38674C0.863648 5.20273 0.863647 8.99428 0.863647 8.99428C0.863647 8.99428 0.863648 12.7858 1.35357 14.6018C1.6215 15.6048 2.40998 16.395 3.41279 16.661C5.2347 17.1473 12.5223 17.1473 12.5223 17.1473C12.5223 17.1473 19.8177 17.1473 21.6319 16.661C22.6347 16.395 23.4232 15.6048 23.6911 14.6018C24.181 12.7858 24.181 8.99428 24.181 8.99428C24.181 8.99428 24.181 5.20273 23.6911 3.38674Z" fill="white"/>
<path d="M9.98651 12.6825V5.02051L17.0041 8.85152L9.98651 12.6825Z" fill="black"/>
</svg>
